<svg width="1238" height="1169" xmlns="http://www.w3.org/2000/svg">

 <g>
  <title>background</title>
  <rect fill="none" id="canvas_background" height="402" width="582" y="-1" x="-1"/>
 </g>
 <g>
  <title>Layer 1</title>
  <path fill="#d6eaf2" id="svg_1" d="m695.69,804.73l0,4.2a11.22,11.22 0 0 1 -11.23,11.22l-305.23,0a70.51,70.51 0 0 1 -68.82,-55.15l-54.62,-244a39.67,39.67 0 0 1 38.71,-48.33l105.83,0a53,53 0 0 1 51.75,41.45l49.92,223.05a72.07,72.07 0 0 0 70.34,56.33l112.12,0a11.23,11.23 0 0 1 11.23,11.23z" class="cls-1"/>
  <path stroke-width="3px" stroke-miterlimit="10" stroke="#639ad6" fill="none" id="svg_2" d="m367.39,821.44l131.78,0a50.11,50.11 0 0 1 50.05,50.16l0,171.29a50.1,50.1 0 0 1 -50.05,50.16l-156.44,0" class="cls-2"/>
  <path stroke-width="3px" stroke-miterlimit="10" stroke="#639ad6" fill="none" id="svg_3" d="m434.18,821.44l175.63,0a50.1,50.1 0 0 1 50,50.16l0,171.29a50.09,50.09 0 0 1 -50,50.16l-125.52,0" class="cls-2"/>
  <line stroke-width="3px" stroke-miterlimit="10" stroke="#639ad6" fill="none" id="svg_4" y2="997.21" x2="659.85" y1="997.21" x1="549.22" class="cls-2"/>
  <path fill="#7b5eea" d="m576.24,390.83s51.09,3.41 76,50.17s56,110.56 56,110.56s87.76,-2.46 152.69,38.07l0,29.14l-186.65,0c-23.19,0 -98,-88.54 -102.37,-145.9s4.33,-82.04 4.33,-82.04z" class="cls-3" id="HAND"/>
  <path fill="#a57574" d="m846.35,618.52c-3.75,-0.78 -1,-12.81 1.19,-20.23c1.22,-4.09 4.15,-6.17 8,-7.94c7.74,-3.52 21.12,-7.5 28.68,-5.8c11.08,2.5 18.2,9.5 25.13,17.8c2,2.38 11.73,13.79 11.73,16.84l-74.73,-0.67z" class="cls-4" id="ARM"/>
  <path fill="#7b5eea" d="m480,371.63c-32.45,0.11 -99.71,67.8 -87.87,239.89c8.73,126.71 48.21,180 56.94,176.27s114.1,-96.07 128.44,-145.95s90.52,-221.11 -9.82,-254c-70.02,-22.94 -77.31,-16.24 -87.69,-16.21z" class="cls-3" id="TORSO"/>
  <path fill="#ffffff" id="svg_5" d="m807.8,1093.87l-114.31,0c-0.12,-1.75 -0.16,-3.41 -0.13,-5l114.57,0a24.3,24.3 0 0 1 -0.13,5z" class="cls-5"/>
  <path fill="#a1cbe2" id="svg_6" d="m705.13,1042.72c0.41,12.47 -11.64,20.37 -11.64,46.14l114.31,0s1.66,-21.62 -21.2,-26.6s-43.65,-11.64 -45.73,-19.54l-35.74,0z" class="cls-6"/>
  <line stroke-linecap="round" stroke="#ffffff" stroke-width="3px" stroke-miterlimit="10" fill="none" id="svg_7" y2="1050.57" x2="752.11" y1="1066.02" x1="741.68" class="cls-7"/>
  <line stroke-linecap="round" stroke="#ffffff" stroke-width="3px" stroke-miterlimit="10" fill="none" id="svg_8" y2="1053.7" x2="759.63" y1="1067.89" x1="749.82" class="cls-7"/>
  <line stroke-linecap="round" stroke="#ffffff" stroke-width="3px" stroke-miterlimit="10" fill="none" id="svg_9" y2="1055.58" x2="768.4" y1="1068.52" x1="760.47" class="cls-7"/>
  <path fill="#242854" id="svg_10" d="m582.2,651.09s174.47,-10.91 216.87,39s-39.91,227.78 -48.22,335.85c0,0 -41.75,4.16 -58.7,0s-31.71,-188.92 11,-239.64c0,0 -162.38,37.35 -225.68,-9.76s78.39,-124.54 104.73,-125.45z" class="cls-8"/>
  <path fill="#4e577d" id="svg_11" d="m692.55,1046.7c6,1.77 23.89,6.57 59.28,0.94c1.83,-0.29 3.18,-3.12 3.18,-5l0,-13.73a3.75,3.75 0 0 0 -4.29,-3.71c-30.62,4.44 -50.73,2 -59.14,0.12a3.77,3.77 0 0 0 -4.55,4.1l2.86,14.07a3.78,3.78 0 0 0 2.66,3.21z" class="cls-9"/>
  <path fill="#ffffff" id="svg_12" d="m1066.12,920.81l-90.68,69.59c-1.28,-1.56 -2.44,-3.1 -3.48,-4.59l90.32,-69.33a25.5,25.5 0 0 1 3.84,4.33z" class="cls-5"/>
  <path fill="#a1cbe2" id="svg_13" d="m952.83,942.33c7.92,9.67 3.17,23.25 18.85,43.67l90.68,-69.6s-11.84,-18.15 -33,-8.19s-41.71,17.34 -48.17,12.34l-28.36,21.78z" class="cls-6"/>
  <line stroke-linecap="round" stroke="#ffffff" stroke-width="3px" stroke-miterlimit="10" fill="none" id="svg_14" y2="919.45" x2="995.12" y1="937.46" x1="996.24" class="cls-7"/>
  <line stroke-linecap="round" stroke="#ffffff" stroke-width="3px" stroke-miterlimit="10" fill="none" id="svg_15" y2="916.95" x2="1002.01" y1="933.07" x1="1003.13" class="cls-7"/>
  <line stroke-linecap="round" stroke="#ffffff" stroke-width="3px" stroke-miterlimit="10" fill="none" id="svg_16" y2="914.44" x2="1008.9" y1="928.69" x1="1010.02" class="cls-7"/>
  <path fill="#242854" id="svg_17" d="m448.45,781.53c2.61,14.07 151.1,48.19 309.05,-51.57c0,0 13.92,115.35 173.53,202.64c0,0 35.15,-15 44.7,-35.14c0,0 -102,-121.78 -142.1,-233.6c-16.83,-46.95 -228.63,-22.37 -259.63,-12.77s-137.19,67.7 -125.55,130.44z" class="cls-8"/>
  <path fill="#383c4d" id="svg_18" d="m461,789.41c-7.7,-2.72 -12.07,-5.58 -12.5,-7.89c-10.45,-56.3 74.07,-108.88 113.88,-126c-39.38,22.92 -106.58,81.9 -101.38,133.89z" class="cls-10"/>
  <path fill="#6874a7" id="svg_19" d="m942.6,949.66c5.85,-2.26 22.19,-10.33 46.84,-36.34a3.76,3.76 0 0 0 0.25,-4.88l-8.36,-10.89a3.75,3.75 0 0 0 -5.66,-0.34c-21.59,22.17 -38.06,31.68 -45.85,35.35a3.76,3.76 0 0 0 -1.11,6l9.85,10.19a3.75,3.75 0 0 0 4.04,0.91z" class="cls-11"/>
  <path fill="#7b5eea" d="m488.71,408.87c33.74,11.2 75.09,129.47 75.09,129.47s59.28,11.23 139.72,44.9c0,0 4.31,21.19 -6.29,35.53c0,0 -159.62,1.25 -175.2,0s-88.84,-61.53 -106.92,-128.21s32.39,-95.38 73.6,-81.69z" class="cls-3" id="HAND-2"/>
  <path fill="#41465a" d="m716.56,530.73l33.87,83.87l5.82,0l-34.82,-85.84a2.63,2.63 0 0 0 -3.26,-1.51l0,0a2.64,2.64 0 0 0 -1.61,3.48z" class="cls-12" id="PEN"/>
  <path fill="#a57574" id="svg_20" d="m703.15,589.54s23.59,-12.47 34.68,-10s24.38,12.46 25.77,15.26s11.08,16.35 11.08,19.4s-31.35,1.94 -35.76,1.94s-33.4,0.46 -39,-0.7s3.23,-25.9 3.23,-25.9z" class="cls-4"/>
  <path fill="#a57574" id="svg_21" d="m738.92,616.14c4.41,0 35.76,1.11 35.76,-1.94s-9.7,-16.63 -11.08,-19.4s-14.69,-12.75 -25.77,-15.24c0,0 13.68,19 1.09,36.58" class="cls-4"/>
  <path stroke="#6f5faf" stroke-width="3px" stroke-miterlimit="10" fill="none" d="m697.23,618.77s-159.62,1.25 -175.2,0s-88.84,-61.53 -106.92,-128.21" class="cls-13" id="HAND-3"/>
  <path stroke="#6f5faf" stroke-width="3px" stroke-miterlimit="10" fill="none" d="m488.71,408.87c33.74,11.2 75.09,129.47 75.09,129.47s39.79,7.54 98.41,28.78" class="cls-13" id="HAND-4"/>
  <path fill="#a1cbe2" d="m893.68,619l0,-5a10,10 0 0 0 -10.68,-10l-182.51,11.38a3.67,3.67 0 0 0 -3.4,3.66l196.59,-0.04z" class="cls-6" id="TABLET"/>
  <path fill="#a57574" d="m499.39,295.44s-4,50.47 -34.26,82.44c0,0 33.89,26.87 70.7,6.82l4,-89.07l-40.44,-0.19z" class="cls-4" id="NECK"/>
  <path fill="#a57574" d="m587.88,284.46s-9,22 -5.76,62.59s-61.23,19.43 -62.32,-8.63s3.28,-53.62 10.57,-54s57.51,0.04 57.51,0.04z" class="cls-4" id="FACE"/>
  <path fill="#242854" id="svg_22" d="m489.64,328.39s9.73,-23.08 2.89,-48.8c-5,-18.8 15.24,-29.73 32.37,-19.7c0,0 64.51,-35.54 79.06,3.29c17.54,46.8 -67.4,23.12 -68.86,24.95s-6.31,38.25 2.8,50.64s19.19,-0.07 32.3,-0.92c13.58,-0.89 11.92,8.1 11.92,8.1s4.06,21.83 5.52,30.21s-50.49,22.53 -64.2,1.25c-12.44,-19.3 -4.5,-58.33 -9.59,-61.58c-10.56,-6.73 -19.12,5.17 -13.26,9.91c0,0 -6.43,3.89 -10.95,2.65z" class="cls-8"/>
  <path fill="#242854" id="svg_23" d="m599.87,292.21c-20,10.76 -61.6,-2.74 -65.32,-5.18" class="cls-8"/>
  <path fill="#4e2556" id="svg_24" d="m506.79,251.82c7,-0.55 14.6,2.2 18.11,8.7" class="cls-14"/>
  <ellipse fill="#242854" id="svg_25" ry="3.81" rx="3.04" cy="315.87" cx="556.79" class="cls-8"/>
  <ellipse fill="#242854" id="svg_26" ry="3.81" rx="2.31" cy="315.87" cx="578.41" class="cls-8"/>
  <ellipse stroke="#ffffff" stroke-width="3px" stroke-miterlimit="10" fill="none" id="svg_27" ry="12.73" rx="11.81" cy="315.33" cx="555.54" class="cls-15"/>
  <ellipse stroke="#ffffff" stroke-width="3px" stroke-miterlimit="10" fill="none" id="svg_28" ry="12.73" rx="9.97" cy="315.33" cx="583.02" class="cls-15"/>
  <line stroke="#ffffff" stroke-width="3px" stroke-miterlimit="10" fill="none" id="svg_29" y2="314.78" x2="573.04" y1="314.78" x1="567.35" class="cls-15"/>
  <path stroke="#ffffff" stroke-width="3px" stroke-miterlimit="10" fill="none" id="svg_30" d="m543.11,314.15l-33.73,-0.47a15.59,15.59 0 0 0 -11.42,5" class="cls-15"/>
  <polygon fill="#fff4de" id="svg_31" points="1155.61 619.68 1155.61 1093.89 1123.71 1093.89 1123.71 651 93.95 651 93.95 1093.89 62.05 1093.89 62.05 619.68 1155.61 619.68" class="cls-16"/>
  <path fill="#ffffff" id="svg_32" d="m1119.28,546.5l-336.64,0a16.13,16.13 0 0 1 -15.56,-20.36l55.85,-205.7c3,-10.87 12.81,-19.68 24.07,-19.68l336.64,0c10.63,0 18.35,11.37 15.56,21.63l-55.85,205.7a24.94,24.94 0 0 1 -24.07,18.41z" class="cls-5"/>
  <path fill="#d4d1f4" id="svg_33" d="m1119.29,546.5l-327,0a15.69,15.69 0 0 1 -15.12,-19.81l54.21,-200.19a24.25,24.25 0 0 1 23.39,-17.91l327,0a15.7,15.7 0 0 1 15.13,19.81l-54.26,200.19a24.25,24.25 0 0 1 -23.35,17.91z" class="cls-17"/>
  <path fill="#ebf4f7" id="svg_34" d="m1119.29,546.5l-327,0a15.69,15.69 0 0 1 -15.12,-19.81l54.21,-200.19a24.25,24.25 0 0 1 23.39,-17.91l327,0a15.7,15.7 0 0 1 15.13,19.81l-54.26,200.19a24.25,24.25 0 0 1 -23.35,17.91z" class="cls-18"/>
  <path stroke-linejoin="round" stroke-linecap="round" stroke-width="3px" stroke="#639ad6" fill="none" id="svg_35" d="m817.07,379.31l14.31,-52.81a24.25,24.25 0 0 1 23.39,-17.91l195.94,0" class="cls-19"/>
  <path stroke-linejoin="round" stroke-linecap="round" stroke-width="3px" stroke="#639ad6" fill="none" id="svg_36" d="m1142.68,528.59a24.25,24.25 0 0 1 -23.39,17.91l-327,0a15.69,15.69 0 0 1 -15.12,-19.81l28.6,-105.53" class="cls-19"/>
  <path fill="#d6eaf2" id="svg_37" d="m1045.5,601.5l-32.5,-112.86l-76.09,0l30.28,105.09c2.47,8.56 -4.71,16.91 -14.53,16.91l-21,0a2.42,2.42 0 0 0 -2.54,2.28l0,4.39a2.42,2.42 0 0 0 2.54,2.28l98.72,0c10.23,0 17.68,-9.21 15.12,-18.09z" class="cls-1"/>
  <path fill="#ffffff" id="svg_38" d="m958.74,615.64l-29.58,0l0,-2.72a2.42,2.42 0 0 1 2.54,-2.28l20.95,0c9.83,0 17,-8.35 14.54,-16.91l-30.28,-105.09l5.44,0l30.9,108.14a15,15 0 0 1 -14.51,18.86z" class="cls-5"/>
  <polygon fill="#a1cbe2" id="svg_39" points="936.91 488.64 936.91 546.61 953.61 546.61 936.91 488.64" class="cls-6"/>
  <polygon fill="#a1cbe2" id="svg_40" points="839.11 526.14 822.4 526.14 821.12 530.78 837.83 530.78 839.11 526.14" class="cls-6"/>
  <polygon fill="#a1cbe2" id="svg_41" points="873.65 526.14 858.22 526.14 856.95 530.78 872.37 530.78 873.65 526.14" class="cls-6"/>
  <path stroke-width="3px" stroke-miterlimit="10" stroke="#639ad6" fill="none" id="svg_42" d="m1031.06,618c10.19,0 17.64,-7.57 15.08,-16.45l-32.53,-112.86" class="cls-2"/>
  <path stroke-width="3px" stroke-miterlimit="10" stroke="#639ad6" fill="none" id="svg_43" d="m865.3,528.46l8.16,0a5.11,5.11 0 0 1 5.11,5.11l0,153.87a13.87,13.87 0 0 0 13.87,13.87l0,0a13.87,13.87 0 0 0 13.86,-13.87l0,-68.77a5.1,5.1 0 0 0 -5.11,-5.1l-7.51,0" class="cls-2"/>
  <rect fill="#7b5eea" id="svg_44" rx="8.99" height="59.28" width="59.28" y="559.49" x="170.24" class="cls-3"/>
  <path fill="#a1cbe2" id="svg_45" d="m196.85,559.49s-7.36,-54.88 46.41,-70.44c0,0 -23.21,22.87 -30.28,70.44l-16.13,0z" class="cls-6"/>
  <path fill="#a1cbe2" id="svg_46" d="m206.28,559.49s-6.4,-48.09 -49.34,-51.31c0,0 27,11.31 27.31,51.31l22.03,0z" class="cls-6"/>
  <path fill="#d6eaf2" id="svg_47" d="m191.75,559.49s-5.55,-39.11 13,-57.71c0,0 -4.62,33.63 1.51,57.71l-14.51,0z" class="cls-1"/>
  <path fill="#d6eaf2" id="svg_48" d="m199.88,559.49s18.19,-10.16 17,-28.85c0,0 10.24,16.64 2.1,28.85l-19.1,0z" class="cls-1"/>
  <path fill="#d6eaf2" id="svg_49" d="m180.78,559.49s-5.16,-14.69 -17.89,-19.22c0,0 23.2,-0.61 28.86,19.22l-10.97,0z" class="cls-1"/>
  <polyline stroke="#4e2556" stroke-linejoin="round" stroke-linecap="round" fill="#a57574" stroke-width="3px" id="svg_50" points="572.2 317.06 580.41 333.06 573.45 337.58" class="cls-20"/>
  <path fill="#fff4de" d="m87.66,278.83l333.34,0l0,30.52l-333.4,-28.17c-0.89,-0.09 -0.83,-2.35 0.06,-2.35z" class="cls-16" id="SHADOW"/>
  <rect stroke="#f1b104" fill="#ffffff" stroke-width="3px" stroke-miterlimit="10" id="svg_51" rx="5.15" height="125.15" width="24.32" y="127.88" x="365.88" class="cls-21"/>
  <rect fill="#7b5eea" id="svg_52" rx="5.03" height="117.04" width="26.8" y="138.47" x="337.58" class="cls-22"/>
  <rect fill="#d6eaf2" id="svg_53" rx="4.69" height="145.46" width="13.9" y="110.05" x="323.68" class="cls-1"/>
  <rect stroke="#f1b104" fill="#ffffff" stroke-width="3px" stroke-miterlimit="10" id="svg_54" rx="5.14" height="107.08" width="22.32" y="146.94" x="300.36" class="cls-21"/>
  <path fill="#7b5eea" id="svg_55" d="m258.85,255.51l-19.48,0l48.73,-130.57a2.67,2.67 0 0 1 2.48,-1.74l13.82,0a2.7,2.7 0 0 1 2.48,3.65l-48.03,128.66z" class="cls-22"/>
  <rect stroke="#f1b104" fill="#ffffff" stroke-width="3px" stroke-miterlimit="10" height="21.88" width="331.65" y="255.51" x="88.39" class="cls-21" id="SHELF-2"/>
  <path fill="#7b5eea" id="svg_56" d="m121.91,207l83.71,0a0,0 0 0 1 0,0l0,9.19a39.33,39.33 0 0 1 -39.33,39.33l-5.06,0a39.33,39.33 0 0 1 -39.33,-39.33l0,-9.19a0,0 0 0 1 0,0l0.01,0z" class="cls-22"/>
  <path fill="#a1cbe2" id="svg_57" d="m197.22,207l-62,0s-18.13,14.79 -28.49,2.66c-7.5,-8.78 28.39,-9.18 28.39,-9.18l1.08,-0.37s-15.4,-32.32 -0.85,-37.71c10.05,-3.74 12.48,23.65 13,32.54c5.29,-2.21 15.62,-5.4 16.5,3c0,0 1.15,-34.59 15.64,-31.29c12,2.75 -5.82,35.26 -5.82,35.26l1.26,0.76s33.1,-24.18 41.22,-18.56c6.14,4.25 -19.93,22.89 -19.93,22.89z" class="cls-6"/>
  <path fill="#d6eaf2" id="svg_58" d="m144.71,207s0.64,-29.82 11.87,-29s-4.42,29 -4.42,29l-7.45,0z" class="cls-1"/>
  <path fill="#d6eaf2" id="svg_59" d="m144.71,207s-11.26,-28.14 -26.52,-20.93c-14.91,7 17.16,20.93 17.16,20.93l9.36,0z" class="cls-1"/>
  <path fill="#d6eaf2" id="svg_60" d="m167.86,207s10.14,-25.35 26.14,-22.94s-19.8,22.94 -19.8,22.94l-6.34,0z" class="cls-1"/>
  <path fill="#d6eaf2" id="svg_61" d="m184.34,207s31.36,-15.79 37,-6.27s-37,6.27 -37,6.27z" class="cls-1"/>
 </g>
</svg>