<svg width="4680" height="3120" viewBox="0 0 4680 3120" fill="none" xmlns="http://www.w3.org/2000/svg">
<path d="M2824.39 536.391C3110.17 890.753 2960.63 1315.25 2452.24 1568.7C1950.85 1818.66 2025.35 2498.75 1654.26 2390.53C1062.62 2217.99 989.048 1220.24 1511.56 600.96C1939.08 94.27 2577.67 230.471 2824.39 536.391Z" fill="#FFEFD3"/>
<path d="M2213.6 541.858L2178.48 450.379C2207.25 419.399 2223.55 378.88 2224.25 336.611C2224.96 294.341 2210.01 253.303 2182.29 221.383C2154.57 189.463 2116.04 168.913 2074.09 163.684C2032.13 158.454 1989.73 168.914 1955.02 193.052C1920.32 217.19 1895.76 253.304 1886.06 294.452C1876.36 335.601 1882.22 378.881 1902.5 415.975C1922.78 453.069 1956.05 481.36 1995.92 495.41C2035.8 509.459 2079.46 508.277 2118.51 492.09L2213.6 541.858Z" fill="white"/>
<path d="M2213.6 543.946C2213.26 543.946 2212.93 543.865 2212.63 543.708L2118.4 494.391C2078.82 510.55 2034.67 511.544 1994.4 497.182C1954.13 482.821 1920.57 454.113 1900.14 416.552C1879.71 378.992 1873.86 335.219 1883.69 293.61C1893.52 252.001 1918.35 215.479 1953.43 191.035C1988.51 166.591 2031.37 155.942 2073.81 161.125C2116.25 166.309 2155.29 186.961 2183.45 219.129C2211.61 251.297 2226.93 292.722 2226.46 335.474C2225.98 378.226 2209.76 419.303 2180.9 450.843L2215.55 541.109C2215.67 541.425 2215.71 541.767 2215.67 542.103C2215.63 542.44 2215.51 542.761 2215.32 543.041C2215.13 543.32 2214.87 543.548 2214.57 543.706C2214.27 543.864 2213.94 543.946 2213.6 543.946ZM2118.51 490C2118.85 490 2119.18 490.082 2119.48 490.239L2209.67 537.439L2176.53 451.123C2176.39 450.758 2176.36 450.361 2176.43 449.977C2176.51 449.594 2176.69 449.238 2176.96 448.952C2205.37 418.348 2221.47 378.322 2222.17 336.566C2222.86 294.809 2208.1 254.27 2180.72 222.738C2153.34 191.205 2115.27 170.906 2073.82 165.74C2032.38 160.574 1990.49 170.907 1956.21 194.752C1921.92 218.597 1897.66 254.272 1888.08 294.921C1878.51 335.57 1884.29 378.324 1904.32 414.967C1924.36 451.611 1957.22 479.557 1996.61 493.436C2036 507.315 2079.13 506.147 2117.71 490.157C2117.96 490.052 2118.24 489.999 2118.51 490Z" fill="#FF9A35"/>
<path d="M2538.66 2217.06C2627.2 2149.06 2665.07 2049.78 2623.23 1995.3C2581.39 1940.82 2475.7 1951.78 2387.16 2019.78C2298.61 2087.77 2260.75 2187.06 2302.59 2241.54C2344.43 2296.02 2450.12 2285.06 2538.66 2217.06Z" fill="#FFEFD3"/>
<path d="M3194.4 1912.4H2401.67C2381.41 1912.38 2362 1904.32 2347.67 1890C2333.35 1875.67 2325.29 1856.26 2325.27 1836V392.8C2325.29 372.545 2333.35 353.126 2347.67 338.803C2362 324.48 2381.41 316.423 2401.67 316.4H3194.4C3214.66 316.423 3234.07 324.48 3248.4 338.803C3262.72 353.126 3270.78 372.545 3270.8 392.8V1836C3270.78 1856.26 3262.72 1875.67 3248.4 1890C3234.07 1904.32 3214.66 1912.38 3194.4 1912.4ZM2401.67 320.578C2382.52 320.6 2364.16 328.216 2350.62 341.757C2337.08 355.297 2329.47 373.655 2329.44 392.804V1836C2329.47 1855.15 2337.08 1873.51 2350.62 1887.05C2364.16 1900.59 2382.52 1908.2 2401.67 1908.23H3194.4C3213.55 1908.2 3231.91 1900.59 3245.45 1887.05C3258.99 1873.51 3266.6 1855.15 3266.63 1836V392.8C3266.6 373.651 3258.99 355.293 3245.45 341.753C3231.91 328.212 3213.55 320.596 3194.4 320.574L2401.67 320.578Z" fill="#FF9A35"/>
<path d="M3044.63 1284.98H2551.43C2525.06 1284.98 2503.68 1306.36 2503.68 1332.73C2503.68 1359.11 2525.06 1380.49 2551.43 1380.49H3044.63C3071.01 1380.49 3092.39 1359.11 3092.39 1332.73C3092.39 1306.36 3071.01 1284.98 3044.63 1284.98Z" fill="#FF9A35"/>
<path d="M3040.74 1370.8H2556.34C2546.47 1370.8 2537 1366.88 2530.03 1359.9C2523.05 1352.92 2519.13 1343.46 2519.13 1333.59C2519.13 1323.72 2523.05 1314.25 2530.03 1307.28C2537 1300.3 2546.47 1296.38 2556.34 1296.38H3040.74C3050.61 1296.38 3060.07 1300.3 3067.05 1307.28C3074.03 1314.25 3077.95 1323.72 3077.95 1333.59C3077.95 1343.46 3074.03 1352.92 3067.05 1359.9C3060.07 1366.88 3050.61 1370.8 3040.74 1370.8ZM2556.34 1298.88C2551.76 1298.86 2547.23 1299.74 2543 1301.47C2538.77 1303.2 2534.92 1305.76 2531.68 1308.98C2528.43 1312.21 2525.86 1316.04 2524.11 1320.26C2522.35 1324.49 2521.45 1329.02 2521.45 1333.59C2521.45 1338.16 2522.35 1342.69 2524.11 1346.91C2525.86 1351.14 2528.43 1354.97 2531.68 1358.2C2534.92 1361.42 2538.77 1363.97 2543 1365.71C2547.23 1367.44 2551.76 1368.32 2556.34 1368.29H3040.74C3049.91 1368.24 3058.69 1364.57 3065.16 1358.06C3071.63 1351.56 3075.26 1342.76 3075.26 1333.59C3075.26 1324.42 3071.63 1315.62 3065.16 1309.11C3058.69 1302.61 3049.91 1298.93 3040.74 1298.88H2556.34Z" fill="white"/>
<path d="M3046.06 656.972H2538.29C2537.74 656.972 2537.2 656.752 2536.81 656.36C2536.42 655.969 2536.2 655.438 2536.2 654.884V599.495C2536.2 598.941 2536.42 598.41 2536.81 598.019C2537.2 597.627 2537.74 597.407 2538.29 597.407H3046.06C3046.33 597.407 3046.6 597.461 3046.85 597.566C3047.11 597.671 3047.34 597.825 3047.53 598.019C3047.73 598.212 3047.88 598.443 3047.99 598.696C3048.09 598.949 3048.14 599.221 3048.14 599.495V654.884C3048.14 655.158 3048.09 655.43 3047.99 655.683C3047.88 655.936 3047.73 656.167 3047.53 656.36C3047.34 656.554 3047.11 656.708 3046.85 656.813C3046.6 656.918 3046.33 656.972 3046.06 656.972ZM2540.38 652.8H3043.97V601.583H2540.38V652.8Z" fill="#FF9A35"/>
<path d="M3268.71 420.5H2327.36C2326.8 420.5 2326.27 420.28 2325.88 419.888C2325.49 419.497 2325.27 418.966 2325.27 418.412C2325.27 417.858 2325.49 417.327 2325.88 416.936C2326.27 416.544 2326.8 416.324 2327.36 416.324H3268.71C3269.27 416.324 3269.8 416.544 3270.19 416.936C3270.58 417.327 3270.8 417.858 3270.8 418.412C3270.8 418.966 3270.58 419.497 3270.19 419.888C3269.8 420.28 3269.27 420.5 3268.71 420.5Z" fill="#FF9A35"/>
<path d="M2403.56 399.568C2398.49 399.568 2393.53 398.063 2389.32 395.245C2385.1 392.427 2381.81 388.421 2379.87 383.734C2377.93 379.048 2377.42 373.891 2378.41 368.916C2379.4 363.941 2381.84 359.371 2385.43 355.784C2389.02 352.197 2393.59 349.754 2398.56 348.765C2403.54 347.775 2408.69 348.283 2413.38 350.224C2418.07 352.166 2422.07 355.453 2424.89 359.671C2427.71 363.889 2429.21 368.847 2429.21 373.92C2429.21 380.72 2426.5 387.239 2421.69 392.048C2416.88 396.856 2410.37 399.561 2403.56 399.568ZM2403.56 352.447C2399.32 352.447 2395.17 353.706 2391.64 356.065C2388.1 358.425 2385.35 361.778 2383.73 365.702C2382.1 369.626 2381.67 373.943 2382.5 378.109C2383.33 382.274 2385.38 386.1 2388.38 389.103C2391.38 392.107 2395.21 394.152 2399.37 394.98C2403.54 395.809 2407.86 395.384 2411.78 393.759C2415.7 392.133 2419.06 389.381 2421.42 385.85C2423.78 382.319 2425.04 378.167 2425.04 373.92C2425.03 368.227 2422.77 362.77 2418.74 358.745C2414.72 354.719 2409.26 352.454 2403.56 352.447Z" fill="#FF9A35"/>
<path d="M2479.38 399.568C2474.31 399.568 2469.35 398.063 2465.13 395.245C2460.91 392.427 2457.63 388.421 2455.68 383.734C2453.74 379.048 2453.24 373.891 2454.22 368.916C2455.21 363.941 2457.66 359.371 2461.24 355.784C2464.83 352.197 2469.4 349.754 2474.38 348.765C2479.35 347.775 2484.51 348.283 2489.2 350.224C2493.88 352.166 2497.89 355.453 2500.71 359.671C2503.52 363.889 2505.03 368.847 2505.03 373.92C2505.02 380.72 2502.32 387.239 2497.51 392.048C2492.7 396.856 2486.18 399.561 2479.38 399.568ZM2479.38 352.447C2475.13 352.447 2470.98 353.706 2467.45 356.066C2463.92 358.425 2461.17 361.779 2459.54 365.703C2457.92 369.626 2457.49 373.944 2458.32 378.109C2459.15 382.275 2461.19 386.101 2464.2 389.104C2467.2 392.107 2471.02 394.152 2475.19 394.98C2479.36 395.809 2483.67 395.384 2487.6 393.758C2491.52 392.133 2494.87 389.381 2497.23 385.85C2499.59 382.319 2500.85 378.167 2500.85 373.92C2500.84 368.227 2498.58 362.77 2494.55 358.744C2490.53 354.719 2485.07 352.454 2479.38 352.447Z" fill="#FF9A35"/>
<path d="M2552.25 399.568C2547.18 399.568 2542.22 398.063 2538 395.245C2533.78 392.427 2530.5 388.421 2528.56 383.734C2526.62 379.048 2526.11 373.891 2527.1 368.916C2528.09 363.941 2530.53 359.371 2534.12 355.784C2537.7 352.197 2542.27 349.754 2547.25 348.765C2552.22 347.775 2557.38 348.283 2562.07 350.224C2566.75 352.166 2570.76 355.453 2573.58 359.671C2576.4 363.889 2577.9 368.847 2577.9 373.92C2577.89 380.72 2575.19 387.239 2570.38 392.048C2565.57 396.856 2559.05 399.561 2552.25 399.568ZM2552.25 352.447C2548 352.447 2543.85 353.706 2540.32 356.065C2536.79 358.425 2534.04 361.778 2532.41 365.702C2530.79 369.626 2530.36 373.943 2531.19 378.109C2532.02 382.274 2534.06 386.1 2537.07 389.103C2540.07 392.107 2543.9 394.152 2548.06 394.98C2552.23 395.809 2556.54 395.384 2560.47 393.759C2564.39 392.133 2567.74 389.381 2570.1 385.85C2572.46 382.319 2573.72 378.167 2573.72 373.92C2573.72 368.227 2571.45 362.77 2567.43 358.745C2563.4 354.719 2557.94 352.454 2552.25 352.447Z" fill="#FF9A35"/>
<path d="M2935.98 1197.83H2637.6C2637.05 1197.83 2636.52 1197.61 2636.12 1197.21C2635.73 1196.82 2635.51 1196.29 2635.51 1195.74V897.357C2635.51 897.083 2635.56 896.811 2635.67 896.558C2635.77 896.304 2635.93 896.074 2636.12 895.88C2636.32 895.686 2636.55 895.533 2636.8 895.428C2637.05 895.323 2637.33 895.269 2637.6 895.269H2935.98C2936.25 895.269 2936.52 895.323 2936.78 895.428C2937.03 895.533 2937.26 895.686 2937.46 895.88C2937.65 896.074 2937.8 896.304 2937.91 896.558C2938.01 896.811 2938.07 897.083 2938.07 897.357V1195.74C2938.07 1196.29 2937.85 1196.82 2937.46 1197.21C2937.06 1197.61 2936.53 1197.83 2935.98 1197.83ZM2639.69 1193.65H2933.89V899.445H2639.69V1193.65Z" fill="#FF9A35"/>
<path d="M2977.32 1197.83H2935.98C2935.43 1197.83 2934.89 1197.61 2934.5 1197.21C2934.11 1196.82 2933.89 1196.29 2933.89 1195.74V897.357C2933.89 896.803 2934.11 896.272 2934.5 895.881C2934.89 895.489 2935.43 895.269 2935.98 895.269H2977.32C2977.6 895.269 2977.87 895.323 2978.12 895.428C2978.37 895.533 2978.6 895.686 2978.8 895.88C2978.99 896.074 2979.15 896.304 2979.25 896.558C2979.36 896.811 2979.41 897.083 2979.41 897.357V1195.74C2979.41 1196.01 2979.36 1196.28 2979.25 1196.54C2979.15 1196.79 2978.99 1197.02 2978.8 1197.21C2978.6 1197.41 2978.37 1197.56 2978.12 1197.67C2977.87 1197.77 2977.6 1197.83 2977.32 1197.83ZM2938.07 1193.65H2975.23V899.445H2938.07V1193.65Z" fill="#FF9A35"/>
<path d="M2898.55 897.357H2886.03V824.043C2886.03 804.509 2878.27 785.774 2864.45 771.961C2850.64 758.148 2831.91 750.388 2812.37 750.388C2792.84 750.388 2774.1 758.148 2760.29 771.961C2746.48 785.774 2738.72 804.509 2738.72 824.043V897.357H2726.19V824.043C2726.19 801.186 2735.27 779.265 2751.43 763.102C2767.59 746.94 2789.51 737.859 2812.37 737.859C2835.23 737.859 2857.15 746.94 2873.31 763.102C2889.47 779.265 2898.55 801.186 2898.55 824.043V897.357Z" fill="#FF9A35"/>
<path d="M2808.67 1042.66C2814.76 1038.08 2819.26 1031.69 2821.52 1024.41C2823.78 1017.12 2823.7 1009.31 2821.28 1002.08C2818.86 994.843 2814.23 988.553 2808.04 984.096C2801.85 979.639 2794.42 977.241 2786.79 977.241C2779.16 977.241 2771.73 979.639 2765.54 984.096C2759.35 988.553 2754.72 994.843 2752.3 1002.08C2749.88 1009.31 2749.8 1017.12 2752.06 1024.41C2754.32 1031.69 2758.82 1038.08 2764.91 1042.66L2747.53 1109.93H2826.05L2808.67 1042.66Z" fill="#FF9A35"/>
<path d="M2826.05 1112.02H2747.53C2747.21 1112.02 2746.9 1111.94 2746.61 1111.8C2746.33 1111.66 2746.08 1111.46 2745.88 1111.21C2745.69 1110.95 2745.55 1110.66 2745.49 1110.35C2745.42 1110.04 2745.43 1109.71 2745.51 1109.41L2762.55 1043.47C2756.38 1038.46 2751.92 1031.66 2749.77 1024.01C2747.62 1016.36 2747.89 1008.24 2750.55 1000.75C2753.2 993.262 2758.11 986.781 2764.6 982.197C2771.09 977.614 2778.84 975.153 2786.79 975.153C2794.73 975.153 2802.49 977.614 2808.97 982.197C2815.46 986.781 2820.38 993.262 2823.03 1000.75C2825.69 1008.24 2825.96 1016.36 2823.81 1024.01C2821.66 1031.66 2817.2 1038.46 2811.03 1043.47L2828.07 1109.41C2828.15 1109.71 2828.16 1110.04 2828.09 1110.35C2828.03 1110.66 2827.89 1110.95 2827.7 1111.21C2827.5 1111.46 2827.25 1111.66 2826.97 1111.8C2826.68 1111.94 2826.36 1112.02 2826.05 1112.02ZM2750.23 1107.84H2823.35L2806.64 1043.19C2806.54 1042.79 2806.56 1042.37 2806.69 1041.98C2806.83 1041.59 2807.08 1041.25 2807.41 1041C2813.15 1036.67 2817.39 1030.65 2819.53 1023.79C2821.66 1016.92 2821.58 1009.56 2819.3 1002.74C2817.02 995.921 2812.66 989.992 2806.82 985.791C2800.99 981.589 2793.98 979.329 2786.79 979.329C2779.6 979.329 2772.59 981.589 2766.76 985.791C2760.92 989.992 2756.56 995.921 2754.28 1002.74C2752 1009.56 2751.92 1016.92 2754.05 1023.79C2756.19 1030.65 2760.43 1036.67 2766.17 1041C2766.5 1041.25 2766.75 1041.59 2766.89 1041.98C2767.02 1042.37 2767.04 1042.79 2766.94 1043.19L2750.23 1107.84Z" fill="white"/>
<path d="M3053.31 1486.37H2542.77C2537.89 1486.37 2533.95 1490.32 2533.95 1495.19V1495.19C2533.95 1500.06 2537.89 1504.01 2542.77 1504.01H3053.31C3058.18 1504.01 3062.13 1500.06 3062.13 1495.19V1495.19C3062.13 1490.32 3058.18 1486.37 3053.31 1486.37Z" fill="#FF9A35"/>
<path d="M3053.31 1570.8H2542.77C2537.89 1570.8 2533.95 1574.75 2533.95 1579.62V1579.62C2533.95 1584.49 2537.89 1588.44 2542.77 1588.44H3053.31C3058.18 1588.44 3062.13 1584.49 3062.13 1579.62V1579.62C3062.13 1574.75 3058.18 1570.8 3053.31 1570.8Z" fill="#FF9A35"/>
<path d="M3053.31 1655.24H2542.77C2537.89 1655.24 2533.95 1659.18 2533.95 1664.05V1664.06C2533.95 1668.93 2537.89 1672.87 2542.77 1672.87H3053.31C3058.18 1672.87 3062.13 1668.93 3062.13 1664.06V1664.05C3062.13 1659.18 3058.18 1655.24 3053.31 1655.24Z" fill="#FF9A35"/>
<path d="M2492.47 1465.65H2433.39V1524.73H2492.47V1465.65Z" fill="white"/>
<path d="M2492.47 1526.82H2433.39C2432.83 1526.82 2432.3 1526.6 2431.91 1526.21C2431.52 1525.81 2431.3 1525.28 2431.3 1524.73V1465.65C2431.3 1465.09 2431.52 1464.56 2431.91 1464.17C2432.3 1463.78 2432.83 1463.56 2433.39 1463.56H2492.47C2492.74 1463.56 2493.01 1463.61 2493.27 1463.72C2493.52 1463.82 2493.75 1463.98 2493.95 1464.17C2494.14 1464.36 2494.29 1464.59 2494.4 1464.85C2494.5 1465.1 2494.56 1465.37 2494.56 1465.65V1524.73C2494.56 1525 2494.5 1525.27 2494.4 1525.53C2494.29 1525.78 2494.14 1526.01 2493.95 1526.21C2493.75 1526.4 2493.52 1526.55 2493.27 1526.66C2493.01 1526.76 2492.74 1526.82 2492.47 1526.82ZM2435.48 1522.64H2490.38V1467.73H2435.48V1522.64Z" fill="#FF9A35"/>
<path d="M2492.47 1550.08H2433.39V1609.16H2492.47V1550.08Z" fill="white"/>
<path d="M2492.47 1611.25H2433.39C2433.11 1611.25 2432.84 1611.2 2432.59 1611.09C2432.33 1610.99 2432.1 1610.83 2431.91 1610.64C2431.72 1610.45 2431.56 1610.21 2431.46 1609.96C2431.35 1609.71 2431.3 1609.44 2431.3 1609.16V1550.08C2431.3 1549.81 2431.35 1549.54 2431.46 1549.28C2431.56 1549.03 2431.72 1548.8 2431.91 1548.6C2432.1 1548.41 2432.33 1548.26 2432.59 1548.15C2432.84 1548.05 2433.11 1547.99 2433.39 1547.99H2492.47C2492.74 1547.99 2493.01 1548.05 2493.27 1548.15C2493.52 1548.26 2493.75 1548.41 2493.95 1548.6C2494.14 1548.8 2494.29 1549.03 2494.4 1549.28C2494.5 1549.54 2494.56 1549.81 2494.56 1550.08V1609.16C2494.56 1609.44 2494.5 1609.71 2494.4 1609.96C2494.29 1610.21 2494.14 1610.45 2493.95 1610.64C2493.75 1610.83 2493.52 1610.99 2493.27 1611.09C2493.01 1611.2 2492.74 1611.25 2492.47 1611.25ZM2435.48 1607.07H2490.38V1552.17H2435.48V1607.07Z" fill="#FF9A35"/>
<path d="M2492.47 1634.51H2433.39V1693.6H2492.47V1634.51Z" fill="white"/>
<path d="M2492.47 1695.69H2433.39C2432.83 1695.69 2432.3 1695.47 2431.91 1695.07C2431.52 1694.68 2431.3 1694.15 2431.3 1693.6V1634.51C2431.3 1633.96 2431.52 1633.43 2431.91 1633.04C2432.3 1632.65 2432.83 1632.43 2433.39 1632.43H2492.47C2492.74 1632.43 2493.01 1632.48 2493.27 1632.58C2493.52 1632.69 2493.75 1632.84 2493.95 1633.04C2494.14 1633.23 2494.29 1633.46 2494.4 1633.71C2494.5 1633.97 2494.56 1634.24 2494.56 1634.51V1693.6C2494.56 1694.15 2494.34 1694.68 2493.94 1695.07C2493.55 1695.47 2493.02 1695.69 2492.47 1695.69ZM2435.48 1691.51H2490.38V1636.6H2435.48V1691.51Z" fill="#FF9A35"/>
<path d="M2213.3 1673.89L2259.62 1757.6C2259.62 1757.6 2291.32 1842.72 2295.99 1871.14C2295.99 1871.14 2277.71 1877 2263.5 1830.59L2291.34 1933.56C2291.34 1933.56 2294.04 1949.78 2284.99 1947.46C2284.99 1947.46 2280.15 1970.38 2268.71 1964.08C2267.59 1965.86 2266.04 1967.34 2264.2 1968.36C2262.36 1969.39 2260.29 1969.94 2258.18 1969.95C2256.07 1969.97 2253.99 1969.45 2252.13 1968.46C2250.28 1967.46 2248.7 1966.01 2247.55 1964.24L2099.22 1735.88L2213.3 1673.89Z" fill="#F6A27F"/>
<path d="M2121.13 1114.4L2171.84 1472.1L2242.39 1726.47L2165.06 1822.23L2001.33 1375.85L2121.13 1114.4Z" fill="#F6A27F"/>
<path d="M1989.07 832.118C1989.07 832.118 2113.46 812.466 2142.3 953.318L2154.96 1127.4C2154.96 1127.4 1999.87 1223.93 2001.45 1219.19C2003.03 1214.44 1989.07 832.118 1989.07 832.118Z" fill="#FF9A35"/>
<path d="M2274.71 1053.47L2402.11 969.93L2422.94 999.207L2408.86 1007.4L2396.1 988.525L2388.39 994.446L2400.73 1011.7L2390.94 1018.24L2378.7 998.855L2280.91 1063.49L2274.71 1053.47Z" fill="#FF9A35"/>
<path d="M2151.43 2898.89L2161.77 2700.09L2013.87 2741.6L2016.13 2848.76L2045.12 2945.85L2137.43 2941.55L2151.43 2898.89Z" fill="#F6A27F"/>
<path d="M2017.58 2956.69L2282.72 2957.99C2278.6 2937.22 2271.35 2911.15 2199.65 2898.1L2153.79 2853.46C2153.79 2853.46 2134.66 2889.25 2095.09 2888C2040.31 2886.28 2016.12 2848.77 2016.12 2848.77L2017.58 2956.69Z" fill="#FF9A35"/>
<path d="M2272.45 2933.92H2017.25C2016.7 2933.91 2016.18 2933.68 2015.8 2933.29C2015.42 2932.9 2015.21 2932.38 2015.21 2931.83C2015.21 2931.29 2015.42 2930.76 2015.8 2930.37C2016.18 2929.98 2016.7 2929.76 2017.25 2929.74H2272.45C2272.99 2929.76 2273.51 2929.98 2273.9 2930.37C2274.28 2930.76 2274.49 2931.29 2274.49 2931.83C2274.49 2932.38 2274.28 2932.9 2273.9 2933.29C2273.51 2933.68 2272.99 2933.91 2272.45 2933.92Z" fill="#FFEFD3"/>
<path d="M2099.22 1463.13L2252.02 2119.66L2201.38 2785.95H1987.49L1943.53 1815.81L1890.05 1450.65L2099.22 1463.13Z" fill="#FF9A35"/>
<path d="M1933.26 2898.89L1943.59 2700.09L1795.7 2741.6L1797.96 2848.76L1826.94 2945.85L1919.26 2941.55L1933.26 2898.89Z" fill="#F6A27F"/>
<path d="M1799.41 2956.69L2064.55 2957.99C2060.43 2937.22 2053.18 2911.15 1981.48 2898.1L1935.62 2853.46C1935.62 2853.46 1916.49 2889.25 1876.93 2888C1822.15 2886.28 1797.96 2848.77 1797.96 2848.77L1799.41 2956.69Z" fill="#FF9A35"/>
<path d="M1730.94 2022.59C1730.94 2022.59 1658.97 2318.01 1759.61 2785.95H1987.49L2013.87 2035.25L1990.37 1428.14L1686.52 1402.24L1730.94 2022.59Z" fill="#FF9A35"/>
<path d="M2121.13 1468.69C2121.13 1468.69 2049.87 1519.88 1847.61 1513.3C1690.78 1508.2 1658.97 1486.89 1658.97 1486.89L1719.49 1012.07C1746.3 893.425 1778.82 824.567 1862.66 820.353C2028.36 811.453 2115.43 879.687 2108.99 998.129L2095.52 1132.39L2121.13 1468.69Z" fill="white"/>
<path d="M2026.25 688.811C2032.03 694.12 2036.55 712.011 2031.32 755.711C2028.19 781.835 2008.74 799.805 1973.5 800.985C1931.8 802.385 1910.66 782.899 1907.77 747.064C1891.72 748.633 1868.98 733.653 1881.83 709.079C1893 687.706 1908.42 711.759 1908.42 711.759L1909.28 672.674C1922.48 656.443 2010.55 628.228 2026.25 688.811Z" fill="#F6A27F"/>
<path d="M1909.67 689.1C1909.67 689.1 1917.63 687.71 1924.49 669.22C1939.13 690.761 1979.88 707.82 2018.78 710.949C2077.78 715.7 2105.18 651.769 2084.08 607.273C2072.89 583.69 2063.49 580.181 1996.87 567.239C1940.59 556.306 1913.4 599.855 1913.4 599.855C1883.56 591.055 1857.24 633.697 1878.05 671.63C1882.59 682.811 1882.31 687.601 1892.03 700.266C1899.11 709.497 1901.49 719.892 1908.97 724.294L1909.67 689.1Z" fill="#B15200"/>
<path d="M1904.69 738.512C1904.37 738.513 1904.06 738.44 1903.77 738.3C1903.49 738.16 1903.24 737.957 1903.04 737.705L1887.94 718.261C1887.6 717.823 1887.45 717.269 1887.52 716.719C1887.59 716.17 1887.87 715.67 1888.31 715.331C1888.75 714.991 1889.3 714.839 1889.85 714.908C1890.4 714.978 1890.9 715.262 1891.24 715.7L1906.34 735.144C1906.58 735.452 1906.73 735.822 1906.77 736.21C1906.81 736.599 1906.74 736.991 1906.57 737.342C1906.4 737.693 1906.13 737.988 1905.8 738.195C1905.47 738.402 1905.08 738.512 1904.69 738.512H1904.69Z" fill="#C75329"/>
<path d="M1921.71 670.46C1921.23 670.461 1920.76 670.343 1920.34 670.117C1919.91 669.892 1919.55 669.565 1919.28 669.166C1918.44 667.914 1898.82 638.053 1910.6 599.006C1910.82 598.263 1911.33 597.64 1912.02 597.273C1912.7 596.907 1913.5 596.827 1914.24 597.05C1914.99 597.274 1915.61 597.784 1915.98 598.468C1916.34 599.151 1916.42 599.952 1916.2 600.695C1905.21 637.118 1923.95 665.622 1924.14 665.906C1924.44 666.346 1924.61 666.858 1924.63 667.387C1924.66 667.916 1924.54 668.442 1924.29 668.91C1924.05 669.378 1923.67 669.769 1923.22 670.042C1922.77 670.315 1922.25 670.459 1921.72 670.46H1921.71Z" fill="#522600"/>
<path d="M1626.17 1063.49L1524.32 1364.47C1504.63 1405.89 1560.02 1521.42 1670.8 1489.77L2278.08 1160.58L2229.18 1070.67L1759.96 1260.58L1813.76 1118.92L1626.17 1063.49Z" fill="#F6A27F"/>
<path d="M1797.16 838.692C1749.26 831.151 1695.34 846.771 1648.88 971.858L1606.03 1082.65C1606.03 1082.65 1606.03 1124.35 1677.47 1159.49C1752.5 1196.4 1811.49 1159.49 1811.49 1159.49L1864.36 991.514C1864.36 991.514 1901.43 855.11 1797.16 838.692Z" fill="#FF9A35"/>
<path d="M2229.18 1070.67L2299.86 1034.78L2316.01 1033.64C2320.11 1033.35 2324.23 1033.91 2328.11 1035.28C2331.98 1036.65 2335.54 1038.8 2338.55 1041.59C2341.56 1044.39 2343.96 1047.78 2345.61 1051.54C2347.26 1055.31 2348.12 1059.38 2348.13 1063.49C2348.13 1063.49 2357.1 1074.61 2354.99 1087.27C2354.99 1087.27 2362.9 1097.82 2359.21 1111.01C2359.21 1111.01 2368.71 1118.39 2361.85 1134.22L2278.08 1160.58L2229.18 1070.67Z" fill="#F6A27F"/>
<path d="M1765.66 1142.14C1755.12 1142.14 1744.61 1141.07 1734.29 1138.93C1711.83 1134.26 1690.08 1124.53 1669.65 1110.01C1634.93 1085.33 1615.75 1054.84 1615.56 1054.54C1615.28 1054.07 1615.19 1053.51 1615.32 1052.98C1615.45 1052.44 1615.78 1051.98 1616.24 1051.69C1616.71 1051.41 1617.27 1051.31 1617.8 1051.43C1618.34 1051.55 1618.8 1051.87 1619.1 1052.33C1619.29 1052.63 1638.11 1082.5 1672.19 1106.69C1703.5 1128.92 1754.55 1150.77 1819.9 1128.67C1820.42 1128.49 1821 1128.53 1821.49 1128.78C1821.99 1129.02 1822.37 1129.45 1822.55 1129.98C1822.72 1130.5 1822.69 1131.08 1822.44 1131.57C1822.19 1132.07 1821.76 1132.45 1821.24 1132.62C1803.36 1138.81 1784.58 1142.03 1765.66 1142.14Z" fill="#FFEFD3"/>
<path d="M1867.78 1474.19C1817.96 1474.19 1768.18 1471.37 1718.68 1465.74C1718.41 1465.7 1718.15 1465.62 1717.91 1465.48C1717.67 1465.35 1717.46 1465.16 1717.29 1464.95C1717.12 1464.73 1716.99 1464.48 1716.92 1464.22C1716.85 1463.95 1716.83 1463.67 1716.86 1463.4C1716.9 1463.13 1716.99 1462.86 1717.12 1462.62C1717.26 1462.39 1717.44 1462.18 1717.66 1462.01C1717.88 1461.84 1718.13 1461.72 1718.4 1461.65C1718.66 1461.58 1718.94 1461.56 1719.21 1461.6C1768.54 1467.21 1818.14 1470.02 1867.78 1470.02H1868.71C1944.57 1469.96 2049.79 1462.5 2120.19 1427.32C2120.69 1427.07 2121.26 1427.03 2121.79 1427.21C2122.31 1427.38 2122.75 1427.76 2123 1428.26C2123.24 1428.75 2123.28 1429.33 2123.11 1429.85C2122.93 1430.38 2122.56 1430.81 2122.06 1431.06C2090.61 1446.77 2049.8 1458.37 2000.78 1465.53C1961.64 1471.24 1917.19 1474.16 1868.66 1474.19H1867.78Z" fill="#FF9A35"/>
<path d="M1858.57 2788.04H1858.51C1857.95 2788.02 1857.43 2787.79 1857.05 2787.38C1856.67 2786.98 1856.46 2786.44 1856.48 2785.89L1877.83 2022.69L1818.49 1512.46C1818.46 1512.19 1818.48 1511.91 1818.56 1511.65C1818.63 1511.38 1818.76 1511.14 1818.93 1510.92C1819.1 1510.71 1819.31 1510.53 1819.55 1510.39C1819.79 1510.26 1820.05 1510.17 1820.33 1510.14C1820.6 1510.11 1820.87 1510.13 1821.14 1510.21C1821.4 1510.28 1821.65 1510.41 1821.86 1510.58C1822.08 1510.75 1822.26 1510.96 1822.39 1511.2C1822.53 1511.44 1822.61 1511.7 1822.64 1511.97L1882 2022.35C1882.01 2022.45 1882.02 2022.55 1882.01 2022.65L1860.66 2786.01C1860.64 2786.55 1860.41 2787.07 1860.02 2787.45C1859.63 2787.83 1859.11 2788.04 1858.57 2788.04Z" fill="#FFEFD3"/>
<path d="M2054.28 2933.92H1799.08C1798.53 2933.91 1798.01 2933.68 1797.63 2933.29C1797.25 2932.9 1797.03 2932.38 1797.03 2931.83C1797.03 2931.29 1797.25 2930.76 1797.63 2930.37C1798.01 2929.98 1798.53 2929.76 1799.08 2929.74H2054.28C2054.82 2929.76 2055.34 2929.98 2055.73 2930.37C2056.11 2930.76 2056.32 2931.29 2056.32 2931.83C2056.32 2932.38 2056.11 2932.9 2055.73 2933.29C2055.34 2933.68 2054.82 2933.91 2054.28 2933.92Z" fill="#FFEFD3"/>
<path d="M2064.55 2960.07C2064.04 2960.07 2063.55 2959.88 2063.17 2959.55C2062.79 2959.21 2062.54 2958.75 2062.48 2958.25C2060.19 2940.4 2051.87 2926.77 2037.76 2917.74C2031.42 2913.65 2024.36 2910.83 2016.95 2909.41C2016.4 2909.33 2015.91 2909.04 2015.57 2908.6C2015.24 2908.15 2015.1 2907.6 2015.18 2907.05C2015.25 2906.5 2015.55 2906.01 2015.99 2905.67C2016.43 2905.34 2016.99 2905.2 2017.54 2905.27C2025.49 2906.74 2033.07 2909.74 2039.87 2914.12C2050.38 2920.81 2063.55 2933.8 2066.62 2957.72C2066.66 2957.99 2066.64 2958.26 2066.57 2958.53C2066.49 2958.79 2066.37 2959.04 2066.2 2959.26C2066.03 2959.48 2065.83 2959.66 2065.59 2959.79C2065.35 2959.93 2065.09 2960.02 2064.82 2960.05C2064.73 2960.06 2064.64 2960.07 2064.55 2960.07Z" fill="#FFEFD3"/>
<path d="M2087.82 2788.04H2087.77C2087.49 2788.03 2087.22 2787.97 2086.97 2787.86C2086.72 2787.75 2086.49 2787.59 2086.31 2787.39C2086.12 2787.19 2085.97 2786.95 2085.87 2786.7C2085.77 2786.44 2085.72 2786.17 2085.73 2785.9L2102.22 2149.3L1999.3 1711.66C1999.24 1711.39 1999.22 1711.11 1999.27 1710.84C1999.31 1710.57 1999.41 1710.31 1999.55 1710.07C1999.69 1709.84 1999.88 1709.63 2000.11 1709.47C2000.33 1709.31 2000.58 1709.2 2000.85 1709.13C2001.12 1709.07 2001.4 1709.06 2001.67 1709.11C2001.94 1709.15 2002.2 1709.25 2002.43 1709.39C2002.67 1709.54 2002.87 1709.73 2003.03 1709.96C2003.19 1710.18 2003.3 1710.43 2003.36 1710.7L2106.35 2148.6C2106.39 2148.78 2106.41 2148.96 2106.41 2149.13L2089.91 2786C2089.89 2786.54 2089.67 2787.06 2089.28 2787.44C2088.89 2787.82 2088.36 2788.04 2087.82 2788.04Z" fill="#FFEFD3"/>
<path d="M1832.98 1621.07C1832.47 1621.07 1831.98 1620.88 1831.6 1620.54C1831.21 1620.19 1830.97 1619.72 1830.91 1619.22C1830.86 1618.71 1830.99 1618.19 1831.28 1617.78C1831.58 1617.36 1832.01 1617.06 1832.51 1616.94C1861.02 1610.34 1880.94 1597.31 1891.72 1578.2C1908.26 1548.89 1897.44 1514.88 1897.32 1514.54C1897.16 1514.01 1897.21 1513.45 1897.46 1512.96C1897.71 1512.47 1898.15 1512.1 1898.67 1511.93C1899.19 1511.76 1899.76 1511.8 1900.25 1512.05C1900.74 1512.29 1901.11 1512.72 1901.29 1513.24C1901.77 1514.7 1912.81 1549.28 1895.38 1580.21C1884 1600.41 1863.17 1614.14 1833.45 1621.01C1833.3 1621.05 1833.14 1621.07 1832.98 1621.07Z" fill="#FFEFD3"/>
<path d="M2258.43 1055.82C2258.43 1055.82 2279.51 1030.86 2296.76 1021.36C2314.01 1011.87 2305.3 1043.52 2305.3 1043.52L2258.43 1055.82Z" fill="#F6A27F"/>
<path d="M2218.63 1858.45C2210.89 1858.39 2203.29 1856.32 2196.58 1852.44C2196.34 1852.31 2196.13 1852.13 2195.96 1851.92C2195.79 1851.7 2195.67 1851.45 2195.6 1851.19C2195.52 1850.93 2195.5 1850.65 2195.53 1850.38C2195.56 1850.1 2195.65 1849.84 2195.78 1849.6C2195.92 1849.36 2196.1 1849.15 2196.31 1848.98C2196.53 1848.81 2196.78 1848.69 2197.04 1848.61C2197.3 1848.54 2197.58 1848.52 2197.85 1848.55C2198.12 1848.58 2198.39 1848.67 2198.63 1848.8C2213 1856.86 2227.93 1856.11 2243.01 1846.57C2250.2 1841.93 2256.55 1836.11 2261.82 1829.36C2262.15 1828.92 2262.64 1828.63 2263.18 1828.55C2263.72 1828.48 2264.27 1828.61 2264.71 1828.93C2265.15 1829.25 2265.45 1829.74 2265.54 1830.27C2265.63 1830.81 2265.51 1831.37 2265.2 1831.81C2259.67 1838.97 2252.95 1845.14 2245.35 1850.04C2236.52 1855.64 2227.51 1858.45 2218.63 1858.45Z" fill="#C75329"/>
<path d="M2285 1949.55C2284.62 1949.55 2284.24 1949.45 2283.92 1949.25C2283.59 1949.05 2283.32 1948.76 2283.15 1948.43L2240.55 1866.63C2240.32 1866.14 2240.29 1865.58 2240.46 1865.07C2240.63 1864.56 2240.99 1864.14 2241.47 1863.89C2241.95 1863.64 2242.5 1863.58 2243.02 1863.74C2243.54 1863.89 2243.98 1864.23 2244.25 1864.7L2286.85 1946.5C2287.01 1946.82 2287.09 1947.17 2287.08 1947.53C2287.07 1947.89 2286.96 1948.24 2286.78 1948.54C2286.59 1948.85 2286.33 1949.1 2286.02 1949.28C2285.71 1949.46 2285.35 1949.55 2285 1949.55H2285Z" fill="#C75329"/>
<path d="M2264.03 1960.3C2263.64 1960.28 2263.26 1960.17 2262.92 1959.98C2262.58 1959.79 2262.29 1959.52 2262.07 1959.2C2261.74 1958.79 2261.57 1958.26 2261.61 1957.73C2258 1950.42 2233.83 1908.93 2217.52 1881.22C2217.24 1880.75 2217.16 1880.18 2217.3 1879.64C2217.44 1879.1 2217.78 1878.64 2218.26 1878.36C2218.74 1878.08 2219.31 1878 2219.84 1878.14C2220.38 1878.28 2220.84 1878.63 2221.12 1879.1C2221.23 1879.3 2232.65 1898.69 2243.81 1917.91C2250.37 1929.2 2255.56 1938.23 2259.24 1944.73C2261.43 1948.6 2263.1 1951.62 2264.21 1953.7C2266.18 1957.38 2266.91 1958.75 2265.23 1959.92C2264.88 1960.16 2264.46 1960.3 2264.03 1960.3Z" fill="#C75329"/>
<path d="M1708.68 1299.72C1708.24 1299.72 1707.81 1299.58 1707.45 1299.32C1707.1 1299.06 1706.83 1298.69 1706.69 1298.27C1706.56 1297.85 1706.56 1297.4 1706.7 1296.98C1706.83 1296.56 1707.1 1296.2 1707.46 1295.94L1758.73 1258.89C1759.18 1258.57 1759.74 1258.45 1760.28 1258.54C1760.82 1258.63 1761.31 1258.93 1761.63 1259.37C1761.95 1259.82 1762.08 1260.37 1762 1260.92C1761.92 1261.46 1761.62 1261.95 1761.18 1262.27L1709.9 1299.32C1709.55 1299.58 1709.12 1299.72 1708.68 1299.72Z" fill="#C75329"/>
<path d="M2104.82 1256.59C2104.35 1256.59 2103.9 1256.44 2103.53 1256.15C2103.17 1255.87 2102.9 1255.47 2102.79 1255.02C2102.68 1254.57 2102.71 1254.09 2102.9 1253.67C2103.09 1253.24 2103.41 1252.89 2103.82 1252.67L2134.79 1235.88C2135.03 1235.74 2135.3 1235.66 2135.57 1235.63C2135.85 1235.6 2136.12 1235.62 2136.39 1235.7C2136.65 1235.77 2136.9 1235.9 2137.12 1236.08C2137.33 1236.25 2137.51 1236.46 2137.64 1236.71C2137.77 1236.95 2137.86 1237.22 2137.88 1237.49C2137.91 1237.77 2137.88 1238.04 2137.8 1238.31C2137.72 1238.57 2137.59 1238.82 2137.42 1239.03C2137.24 1239.25 2137.02 1239.42 2136.78 1239.55L2105.81 1256.34C2105.51 1256.5 2105.17 1256.59 2104.82 1256.59Z" fill="#C75329"/>
<path d="M2335.37 1070.93C2334.89 1070.93 2334.42 1070.76 2334.05 1070.46C2333.67 1070.15 2333.42 1069.73 2333.32 1069.25C2333.23 1068.78 2333.3 1068.29 2333.53 1067.86C2333.75 1067.44 2334.12 1067.1 2334.56 1066.91L2347.33 1061.56C2347.58 1061.45 2347.85 1061.4 2348.13 1061.39C2348.4 1061.39 2348.67 1061.44 2348.93 1061.55C2349.18 1061.65 2349.42 1061.8 2349.61 1062C2349.81 1062.19 2349.96 1062.42 2350.07 1062.67C2350.18 1062.93 2350.23 1063.2 2350.23 1063.48C2350.23 1063.75 2350.18 1064.02 2350.07 1064.28C2349.97 1064.53 2349.81 1064.76 2349.62 1064.96C2349.43 1065.15 2349.19 1065.31 2348.94 1065.41L2336.18 1070.77C2335.92 1070.87 2335.65 1070.93 2335.37 1070.93Z" fill="#C75329"/>
<path d="M2341.75 1093.88C2341.26 1093.88 2340.78 1093.7 2340.4 1093.38C2340.02 1093.06 2339.77 1092.62 2339.69 1092.13C2339.61 1091.64 2339.7 1091.14 2339.96 1090.72C2340.21 1090.29 2340.61 1089.97 2341.08 1089.81L2354.32 1085.29C2354.57 1085.21 2354.85 1085.17 2355.12 1085.19C2355.4 1085.2 2355.66 1085.28 2355.91 1085.4C2356.16 1085.52 2356.38 1085.69 2356.56 1085.89C2356.74 1086.1 2356.88 1086.34 2356.97 1086.6C2357.05 1086.86 2357.09 1087.13 2357.07 1087.4C2357.06 1087.68 2356.98 1087.94 2356.86 1088.19C2356.74 1088.44 2356.58 1088.66 2356.37 1088.84C2356.16 1089.02 2355.92 1089.16 2355.66 1089.25L2342.43 1093.76C2342.21 1093.84 2341.98 1093.88 2341.75 1093.88Z" fill="#C75329"/>
<path d="M2274.71 1047.98C2274.23 1047.98 2273.76 1047.82 2273.39 1047.52C2273.02 1047.21 2272.76 1046.79 2272.66 1046.32C2272.56 1045.86 2272.63 1045.37 2272.85 1044.94C2273.07 1044.51 2273.43 1044.18 2273.86 1043.98L2299.02 1032.87C2299.27 1032.76 2299.54 1032.7 2299.82 1032.69C2300.09 1032.68 2300.37 1032.73 2300.62 1032.83C2300.88 1032.93 2301.12 1033.07 2301.31 1033.26C2301.51 1033.45 2301.67 1033.68 2301.79 1033.93C2301.9 1034.18 2301.96 1034.46 2301.96 1034.73C2301.97 1035.01 2301.92 1035.28 2301.82 1035.54C2301.72 1035.79 2301.57 1036.03 2301.38 1036.22C2301.19 1036.42 2300.96 1036.58 2300.71 1036.69L2275.55 1047.8C2275.29 1047.92 2275 1047.98 2274.71 1047.98Z" fill="#C75329"/>
<path d="M2348.13 1116.49C2347.63 1116.49 2347.15 1116.31 2346.77 1115.99C2346.39 1115.66 2346.14 1115.21 2346.07 1114.71C2345.99 1114.22 2346.1 1113.71 2346.37 1113.29C2346.63 1112.87 2347.04 1112.55 2347.52 1112.41L2358.6 1109.01C2359.13 1108.85 2359.7 1108.9 2360.19 1109.16C2360.68 1109.42 2361.04 1109.87 2361.21 1110.4C2361.37 1110.93 2361.31 1111.5 2361.05 1111.99C2360.79 1112.48 2360.35 1112.84 2359.82 1113L2348.74 1116.4C2348.55 1116.46 2348.34 1116.49 2348.13 1116.49Z" fill="#C75329"/>
<path d="M2052.82 465.709C2125.2 465.709 2183.88 407.034 2183.88 334.654C2183.88 262.274 2125.2 203.599 2052.82 203.599C1980.44 203.599 1921.77 262.274 1921.77 334.654C1921.77 407.034 1980.44 465.709 2052.82 465.709Z" fill="white"/>
<path d="M2052.82 467.8C1979.41 467.8 1919.68 408.073 1919.68 334.657C1919.68 261.241 1979.41 201.514 2052.82 201.514C2126.24 201.514 2185.97 261.242 2185.97 334.657C2185.97 408.072 2126.24 467.8 2052.82 467.8ZM2052.82 205.69C2027.32 205.69 2002.38 213.254 1981.17 227.425C1959.97 241.597 1943.44 261.739 1933.67 285.304C1923.91 308.87 1921.36 334.801 1926.34 359.818C1931.31 384.835 1943.6 407.815 1961.63 425.851C1979.67 443.887 2002.65 456.17 2027.67 461.146C2052.68 466.122 2078.61 463.568 2102.18 453.807C2125.74 444.046 2145.89 427.516 2160.06 406.307C2174.23 385.099 2181.79 360.164 2181.79 334.657C2181.75 300.464 2168.15 267.683 2143.98 243.504C2119.8 219.326 2087.02 205.726 2052.82 205.687V205.69Z" fill="#FF9A35"/>
<path d="M1997.76 318.49L2045.24 373.92L2143.1 239.651" fill="white"/>
<path d="M2045.24 376.843C2044.81 376.843 2044.4 376.752 2044.01 376.575C2043.63 376.399 2043.29 376.142 2043.02 375.821L1995.54 320.391C1995.05 319.8 1994.82 319.042 1994.89 318.279C1994.95 317.517 1995.31 316.811 1995.9 316.314C1996.48 315.816 1997.23 315.567 1997.99 315.618C1998.76 315.67 1999.47 316.019 1999.98 316.591L2045.05 369.213L2140.74 237.932C2141.19 237.306 2141.88 236.886 2142.65 236.766C2143.41 236.646 2144.19 236.835 2144.82 237.292C2145.45 237.749 2145.87 238.436 2145.99 239.201C2146.11 239.967 2145.92 240.75 2145.46 241.376L2047.6 375.642C2047.34 375.999 2047 376.292 2046.61 376.5C2046.22 376.708 2045.79 376.825 2045.35 376.842L2045.24 376.843Z" fill="#FF9A35"/>
<path d="M3442.42 1785.62H2649.69C2608.65 1785.62 2575.38 1818.89 2575.38 1859.93V2200.91C2575.38 2241.95 2608.65 2275.22 2649.69 2275.22H3442.42C3483.46 2275.22 3516.73 2241.95 3516.73 2200.91V1859.93C3516.73 1818.89 3483.46 1785.62 3442.42 1785.62Z" fill="white"/>
<path d="M3442.42 2277.31H2649.69C2629.44 2277.29 2610.02 2269.23 2595.69 2254.91C2581.37 2240.58 2573.31 2221.17 2573.29 2200.91V1859.93C2573.31 1839.68 2581.37 1820.26 2595.69 1805.94C2610.02 1791.61 2629.44 1783.56 2649.69 1783.53H3442.42C3462.68 1783.56 3482.1 1791.61 3496.42 1805.94C3510.74 1820.26 3518.8 1839.68 3518.82 1859.93V2200.91C3518.8 2221.16 3510.74 2240.58 3496.42 2254.91C3482.1 2269.23 3462.68 2277.29 3442.42 2277.31ZM2649.69 1787.71C2630.54 1787.73 2612.18 1795.35 2598.64 1808.89C2585.1 1822.43 2577.49 1840.79 2577.47 1859.94V2200.91C2577.49 2220.06 2585.1 2238.42 2598.64 2251.96C2612.18 2265.5 2630.54 2273.12 2649.69 2273.14H3442.42C3461.57 2273.11 3479.93 2265.5 3493.47 2251.96C3507.01 2238.42 3514.63 2220.06 3514.65 2200.91V1859.93C3514.63 1840.79 3507.01 1822.43 3493.47 1808.89C3479.93 1795.35 3461.57 1787.73 3442.42 1787.71L2649.69 1787.71Z" fill="#FF9A35"/>
<path d="M3516.74 1887.63H2575.38C2574.82 1887.63 2574.29 1887.41 2573.9 1887.02C2573.51 1886.62 2573.29 1886.09 2573.29 1885.54C2573.29 1884.99 2573.51 1884.45 2573.9 1884.06C2574.29 1883.67 2574.82 1883.45 2575.38 1883.45H3516.74C3517.29 1883.45 3517.82 1883.67 3518.21 1884.06C3518.6 1884.45 3518.82 1884.99 3518.82 1885.54C3518.82 1886.09 3518.6 1886.62 3518.21 1887.02C3517.82 1887.41 3517.29 1887.63 3516.74 1887.63Z" fill="#FF9A35"/>
<path d="M2651.59 1866.7C2646.51 1866.7 2641.55 1865.2 2637.34 1862.38C2633.12 1859.56 2629.83 1855.55 2627.89 1850.87C2625.95 1846.18 2625.44 1841.02 2626.43 1836.05C2627.42 1831.07 2629.86 1826.5 2633.45 1822.91C2637.04 1819.33 2641.61 1816.88 2646.58 1815.89C2651.56 1814.91 2656.71 1815.41 2661.4 1817.35C2666.09 1819.3 2670.09 1822.58 2672.91 1826.8C2675.73 1831.02 2677.23 1835.98 2677.23 1841.05C2677.23 1847.85 2674.52 1854.37 2669.71 1859.18C2664.91 1863.99 2658.39 1866.69 2651.59 1866.7ZM2651.59 1819.58C2647.34 1819.58 2643.19 1820.84 2639.66 1823.2C2636.12 1825.56 2633.37 1828.91 2631.75 1832.83C2630.12 1836.76 2629.7 1841.07 2630.52 1845.24C2631.35 1849.4 2633.4 1853.23 2636.4 1856.23C2639.4 1859.24 2643.23 1861.28 2647.4 1862.11C2651.56 1862.94 2655.88 1862.51 2659.8 1860.89C2663.73 1859.26 2667.08 1856.51 2669.44 1852.98C2671.8 1849.45 2673.06 1845.3 2673.06 1841.05C2673.05 1835.36 2670.79 1829.9 2666.76 1825.87C2662.74 1821.85 2657.28 1819.58 2651.59 1819.58V1819.58Z" fill="#FF9A35"/>
<path d="M2727.4 1866.7C2722.33 1866.7 2717.37 1865.2 2713.15 1862.38C2708.93 1859.56 2705.65 1855.55 2703.7 1850.87C2701.76 1846.18 2701.26 1841.02 2702.24 1836.05C2703.23 1831.07 2705.68 1826.5 2709.26 1822.91C2712.85 1819.33 2717.42 1816.88 2722.4 1815.89C2727.37 1814.91 2732.53 1815.41 2737.22 1817.35C2741.9 1819.3 2745.91 1822.58 2748.73 1826.8C2751.55 1831.02 2753.05 1835.98 2753.05 1841.05C2753.04 1847.85 2750.34 1854.37 2745.53 1859.18C2740.72 1863.99 2734.2 1866.69 2727.4 1866.7ZM2727.4 1819.58C2723.15 1819.58 2719 1820.84 2715.47 1823.2C2711.94 1825.56 2709.19 1828.91 2707.56 1832.83C2705.94 1836.76 2705.51 1841.07 2706.34 1845.24C2707.17 1849.41 2709.21 1853.23 2712.22 1856.23C2715.22 1859.24 2719.05 1861.28 2723.21 1862.11C2727.38 1862.94 2731.69 1862.51 2735.62 1860.89C2739.54 1859.26 2742.89 1856.51 2745.25 1852.98C2747.61 1849.45 2748.87 1845.3 2748.87 1841.05C2748.87 1835.36 2746.6 1829.9 2742.58 1825.87C2738.55 1821.85 2733.09 1819.58 2727.4 1819.58V1819.58Z" fill="#FF9A35"/>
<path d="M2800.27 1866.7C2795.2 1866.7 2790.24 1865.2 2786.02 1862.38C2781.8 1859.56 2778.52 1855.55 2776.57 1850.87C2774.63 1846.18 2774.13 1841.02 2775.11 1836.05C2776.1 1831.07 2778.55 1826.5 2782.13 1822.91C2785.72 1819.33 2790.29 1816.88 2795.27 1815.89C2800.24 1814.91 2805.4 1815.41 2810.09 1817.35C2814.77 1819.3 2818.78 1822.58 2821.6 1826.8C2824.42 1831.02 2825.92 1835.98 2825.92 1841.05C2825.91 1847.85 2823.21 1854.37 2818.4 1859.18C2813.59 1863.99 2807.07 1866.69 2800.27 1866.7ZM2800.27 1819.58C2796.03 1819.58 2791.87 1820.84 2788.34 1823.2C2784.81 1825.56 2782.06 1828.91 2780.43 1832.83C2778.81 1836.76 2778.38 1841.07 2779.21 1845.24C2780.04 1849.4 2782.08 1853.23 2785.09 1856.23C2788.09 1859.24 2791.92 1861.28 2796.08 1862.11C2800.25 1862.94 2804.56 1862.51 2808.49 1860.89C2812.41 1859.26 2815.77 1856.51 2818.13 1852.98C2820.48 1849.45 2821.74 1845.3 2821.74 1841.05C2821.74 1835.36 2819.47 1829.9 2815.45 1825.87C2811.42 1821.85 2805.96 1819.58 2800.27 1819.58V1819.58Z" fill="#FF9A35"/>
<path d="M3464.91 1948.02H2628.02V2173.79H3464.91V1948.02Z" fill="white"/>
<path d="M3464.91 2175.88H2628.02C2627.47 2175.88 2626.94 2175.66 2626.55 2175.27C2626.16 2174.88 2625.94 2174.35 2625.94 2173.8V1948.02C2625.94 1947.46 2626.16 1946.93 2626.55 1946.54C2626.94 1946.15 2627.47 1945.93 2628.02 1945.93H3464.91C3465.46 1945.93 3465.99 1946.15 3466.38 1946.54C3466.77 1946.93 3466.99 1947.46 3466.99 1948.02V2173.8C3466.99 2174.35 3466.77 2174.88 3466.38 2175.27C3465.99 2175.66 3465.46 2175.88 3464.91 2175.88ZM2630.11 2171.71H3462.82V1950.1H2630.11V2171.71Z" fill="#FF9A35"/>
<path d="M3432.73 2021.4H2660.44V2053.05H3432.73V2021.4Z" fill="#FF9A35"/>
<path d="M3432.73 2071.09H2660.44V2102.75H3432.73V2071.09Z" fill="#FF9A35"/>
<path d="M1416.43 1369.33C1409.19 1369.33 1402.12 1367.19 1396.1 1363.17C1390.08 1359.15 1385.39 1353.43 1382.62 1346.74C1379.85 1340.05 1379.12 1332.69 1380.54 1325.59C1381.95 1318.5 1385.43 1311.97 1390.55 1306.85C1395.67 1301.74 1402.19 1298.25 1409.29 1296.84C1416.39 1295.43 1423.75 1296.15 1430.44 1298.92C1437.13 1301.69 1442.84 1306.38 1446.86 1312.4C1450.89 1318.42 1453.03 1325.5 1453.03 1332.74C1453.02 1342.44 1449.16 1351.74 1442.3 1358.6C1435.44 1365.46 1426.14 1369.32 1416.43 1369.33ZM1416.43 1301.98C1410.35 1301.97 1404.4 1303.78 1399.35 1307.16C1394.29 1310.54 1390.34 1315.34 1388.02 1320.96C1385.69 1326.58 1385.08 1332.77 1386.27 1338.73C1387.45 1344.7 1390.38 1350.18 1394.68 1354.48C1398.98 1358.78 1404.46 1361.71 1410.43 1362.9C1416.4 1364.08 1422.58 1363.48 1428.2 1361.15C1433.82 1358.82 1438.63 1354.88 1442.01 1349.82C1445.39 1344.76 1447.19 1338.82 1447.19 1332.73C1447.18 1324.58 1443.94 1316.76 1438.17 1310.99C1432.4 1305.23 1424.59 1301.98 1416.43 1301.98Z" fill="#FF9A35"/>
<path d="M2327.36 237.576C2320.12 237.576 2313.04 235.429 2307.02 231.408C2301 227.386 2296.31 221.67 2293.54 214.982C2290.77 208.294 2290.05 200.935 2291.46 193.836C2292.87 186.736 2296.36 180.214 2301.48 175.096C2306.59 169.977 2313.12 166.491 2320.22 165.079C2327.32 163.667 2334.67 164.392 2341.36 167.162C2348.05 169.932 2353.77 174.623 2357.79 180.642C2361.81 186.661 2363.96 193.737 2363.96 200.976C2363.94 210.679 2360.08 219.982 2353.22 226.843C2346.36 233.704 2337.06 237.564 2327.36 237.576ZM2327.36 170.216C2321.27 170.216 2315.33 172.019 2310.27 175.399C2305.21 178.779 2301.27 183.582 2298.94 189.202C2296.61 194.822 2296 201.006 2297.19 206.973C2298.38 212.939 2301.3 218.42 2305.61 222.721C2309.91 227.023 2315.39 229.952 2321.35 231.139C2327.32 232.326 2333.5 231.717 2339.12 229.389C2344.75 227.061 2349.55 223.119 2352.93 218.061C2356.31 213.003 2358.11 207.056 2358.11 200.973C2358.1 192.819 2354.86 185.001 2349.09 179.235C2343.33 173.469 2335.51 170.225 2327.36 170.216Z" fill="#FF9A35"/>
<path d="M2651.59 2413.09C2644.35 2413.09 2637.27 2410.94 2631.25 2406.92C2625.23 2402.9 2620.54 2397.18 2617.77 2390.49C2615 2383.81 2614.28 2376.45 2615.69 2369.35C2617.1 2362.25 2620.59 2355.73 2625.71 2350.61C2630.82 2345.49 2637.35 2342 2644.45 2340.59C2651.55 2339.18 2658.9 2339.9 2665.59 2342.67C2672.28 2345.44 2678 2350.14 2682.02 2356.15C2686.04 2362.17 2688.19 2369.25 2688.19 2376.49C2688.17 2386.19 2684.31 2395.49 2677.45 2402.36C2670.59 2409.22 2661.29 2413.08 2651.59 2413.09ZM2651.59 2345.73C2645.5 2345.73 2639.56 2347.53 2634.5 2350.91C2629.44 2354.29 2625.5 2359.09 2623.17 2364.71C2620.84 2370.33 2620.24 2376.52 2621.42 2382.48C2622.61 2388.45 2625.54 2393.93 2629.84 2398.23C2634.14 2402.53 2639.62 2405.46 2645.59 2406.65C2651.55 2407.84 2657.74 2407.23 2663.36 2404.9C2668.98 2402.57 2673.78 2398.63 2677.16 2393.57C2680.54 2388.51 2682.34 2382.57 2682.34 2376.49C2682.33 2368.33 2679.09 2360.51 2673.32 2354.75C2667.56 2348.98 2659.74 2345.74 2651.59 2345.73Z" fill="#FF9A35"/>
<path d="M1686.52 516.183C1685.75 516.183 1685 515.875 1684.46 515.326C1683.91 514.778 1683.6 514.034 1683.6 513.259V485.565C1683.59 485.177 1683.66 484.791 1683.81 484.43C1683.95 484.069 1684.16 483.74 1684.44 483.463C1684.71 483.185 1685.03 482.965 1685.39 482.815C1685.75 482.664 1686.14 482.587 1686.52 482.587C1686.91 482.587 1687.3 482.664 1687.65 482.815C1688.01 482.965 1688.34 483.185 1688.61 483.463C1688.88 483.74 1689.1 484.069 1689.24 484.43C1689.38 484.791 1689.45 485.177 1689.45 485.565V513.259C1689.45 514.034 1689.14 514.778 1688.59 515.327C1688.04 515.875 1687.3 516.183 1686.52 516.183Z" fill="#FF9A35"/>
<path d="M1686.52 592.145C1685.75 592.145 1685 591.837 1684.46 591.289C1683.91 590.741 1683.6 589.997 1683.6 589.222V561.522C1683.61 560.756 1683.93 560.026 1684.48 559.489C1685.02 558.953 1685.76 558.652 1686.52 558.652C1687.29 558.652 1688.03 558.953 1688.57 559.489C1689.12 560.026 1689.43 560.756 1689.45 561.522V589.222C1689.45 589.606 1689.37 589.986 1689.22 590.341C1689.08 590.696 1688.86 591.018 1688.59 591.289C1688.32 591.561 1688 591.776 1687.64 591.923C1687.29 592.07 1686.91 592.145 1686.52 592.145Z" fill="#FF9A35"/>
<path d="M1738.35 540.317H1710.65C1709.89 540.303 1709.16 539.989 1708.62 539.442C1708.08 538.895 1707.78 538.16 1707.78 537.394C1707.78 536.627 1708.08 535.892 1708.62 535.345C1709.16 534.798 1709.89 534.484 1710.65 534.47H1738.35C1738.74 534.463 1739.13 534.533 1739.49 534.677C1739.85 534.821 1740.18 535.035 1740.45 535.307C1740.73 535.579 1740.95 535.904 1741.1 536.262C1741.25 536.62 1741.33 537.005 1741.33 537.394C1741.33 537.782 1741.25 538.167 1741.1 538.525C1740.95 538.883 1740.73 539.208 1740.45 539.48C1740.18 539.752 1739.85 539.966 1739.49 540.11C1739.13 540.254 1738.74 540.324 1738.35 540.317Z" fill="#FF9A35"/>
<path d="M1662.39 540.317H1634.69C1633.92 540.303 1633.19 539.989 1632.66 539.442C1632.12 538.895 1631.82 538.16 1631.82 537.394C1631.82 536.627 1632.12 535.892 1632.66 535.345C1633.19 534.798 1633.92 534.484 1634.69 534.47H1662.39C1662.78 534.463 1663.16 534.533 1663.52 534.677C1663.89 534.821 1664.21 535.035 1664.49 535.307C1664.77 535.579 1664.99 535.904 1665.14 536.262C1665.29 536.62 1665.37 537.005 1665.37 537.394C1665.37 537.782 1665.29 538.167 1665.14 538.525C1664.99 538.883 1664.77 539.208 1664.49 539.48C1664.21 539.752 1663.89 539.966 1663.52 540.11C1663.16 540.254 1662.78 540.324 1662.39 540.317Z" fill="#FF9A35"/>
<path d="M3432.73 1534.96C3431.95 1534.96 3431.21 1534.65 3430.66 1534.1C3430.11 1533.55 3429.8 1532.81 3429.8 1532.03V1504.34C3429.8 1503.56 3430.11 1502.82 3430.66 1502.27C3431.21 1501.72 3431.95 1501.42 3432.73 1501.42C3433.5 1501.42 3434.25 1501.72 3434.79 1502.27C3435.34 1502.82 3435.65 1503.56 3435.65 1504.34V1532.03C3435.65 1532.81 3435.34 1533.55 3434.79 1534.1C3434.25 1534.65 3433.5 1534.96 3432.73 1534.96Z" fill="#FF9A35"/>
<path d="M3432.73 1610.92C3432.34 1610.92 3431.96 1610.84 3431.61 1610.7C3431.25 1610.55 3430.93 1610.34 3430.66 1610.07C3430.39 1609.79 3430.17 1609.47 3430.02 1609.12C3429.88 1608.76 3429.8 1608.38 3429.8 1608V1580.3C3429.8 1579.52 3430.11 1578.78 3430.66 1578.23C3431.2 1577.68 3431.95 1577.38 3432.72 1577.38C3433.5 1577.38 3434.24 1577.68 3434.79 1578.23C3435.34 1578.78 3435.65 1579.52 3435.65 1580.3V1608C3435.65 1608.77 3435.34 1609.52 3434.79 1610.06C3434.24 1610.61 3433.5 1610.92 3432.73 1610.92Z" fill="#FF9A35"/>
<path d="M3484.56 1559.09H3456.86C3456.09 1559.09 3455.34 1558.78 3454.8 1558.23C3454.25 1557.69 3453.94 1556.94 3453.94 1556.17C3453.94 1555.39 3454.25 1554.65 3454.8 1554.1C3455.34 1553.55 3456.09 1553.24 3456.86 1553.24H3484.56C3485.33 1553.24 3486.07 1553.55 3486.62 1554.1C3487.17 1554.65 3487.48 1555.39 3487.48 1556.17C3487.48 1556.94 3487.17 1557.69 3486.62 1558.23C3486.07 1558.78 3485.33 1559.09 3484.56 1559.09Z" fill="#FF9A35"/>
<path d="M3408.59 1559.09H3380.9C3380.12 1559.09 3379.38 1558.78 3378.83 1558.23C3378.28 1557.69 3377.98 1556.94 3377.98 1556.17C3377.98 1555.39 3378.28 1554.65 3378.83 1554.1C3379.38 1553.55 3380.12 1553.24 3380.9 1553.24H3408.59C3409.37 1553.24 3410.11 1553.55 3410.66 1554.1C3411.21 1554.65 3411.52 1555.39 3411.52 1556.17C3411.52 1556.94 3411.21 1557.69 3410.66 1558.23C3410.11 1558.78 3409.37 1559.09 3408.59 1559.09H3408.59Z" fill="#FF9A35"/>
<path d="M1267.54 1613.3C1266.77 1613.3 1266.02 1612.99 1265.47 1612.44C1264.93 1611.89 1264.62 1611.15 1264.62 1610.38V1582.68C1264.62 1581.91 1264.93 1581.16 1265.47 1580.62C1266.02 1580.07 1266.77 1579.76 1267.54 1579.76C1268.32 1579.76 1269.06 1580.07 1269.61 1580.62C1270.16 1581.16 1270.46 1581.91 1270.46 1582.68V1610.38C1270.46 1611.15 1270.16 1611.89 1269.61 1612.44C1269.06 1612.99 1268.32 1613.3 1267.54 1613.3Z" fill="#FF9A35"/>
<path d="M1267.54 1689.27C1266.77 1689.27 1266.02 1688.96 1265.47 1688.41C1264.93 1687.86 1264.62 1687.12 1264.62 1686.34V1658.64C1264.62 1657.87 1264.93 1657.12 1265.47 1656.58C1266.02 1656.03 1266.77 1655.72 1267.54 1655.72C1268.32 1655.72 1269.06 1656.03 1269.61 1656.58C1270.16 1657.12 1270.46 1657.87 1270.46 1658.64V1686.34C1270.46 1687.12 1270.16 1687.86 1269.61 1688.41C1269.06 1688.96 1268.32 1689.27 1267.54 1689.27Z" fill="#FF9A35"/>
<path d="M1319.37 1637.44H1291.68C1290.9 1637.44 1290.16 1637.13 1289.61 1636.58C1289.06 1636.03 1288.75 1635.29 1288.75 1634.51C1288.75 1633.74 1289.06 1633 1289.61 1632.45C1290.16 1631.9 1290.9 1631.59 1291.68 1631.59H1319.37C1320.15 1631.59 1320.89 1631.9 1321.44 1632.45C1321.99 1633 1322.29 1633.74 1322.29 1634.51C1322.29 1635.29 1321.99 1636.03 1321.44 1636.58C1320.89 1637.13 1320.15 1637.44 1319.37 1637.44Z" fill="#FF9A35"/>
<path d="M1243.41 1637.44H1215.71C1214.94 1637.44 1214.19 1637.13 1213.65 1636.58C1213.1 1636.03 1212.79 1635.29 1212.79 1634.51C1212.79 1633.74 1213.1 1633 1213.65 1632.45C1214.19 1631.9 1214.94 1631.59 1215.71 1631.59H1243.41C1244.18 1631.59 1244.93 1631.9 1245.47 1632.45C1246.02 1633 1246.33 1633.74 1246.33 1634.51C1246.33 1635.29 1246.02 1636.03 1245.47 1636.58C1244.93 1637.13 1244.18 1637.44 1243.41 1637.44Z" fill="#FF9A35"/>
<path d="M2491.3 2461.43C2490.52 2461.43 2489.78 2461.12 2489.23 2460.57C2488.68 2460.03 2488.38 2459.28 2488.38 2458.51V2430.81C2488.39 2430.04 2488.7 2429.31 2489.25 2428.77C2489.8 2428.24 2490.53 2427.94 2491.3 2427.94C2492.07 2427.94 2492.8 2428.24 2493.35 2428.77C2493.89 2429.31 2494.21 2430.04 2494.22 2430.81V2458.51C2494.22 2459.28 2493.92 2460.03 2493.37 2460.57C2492.82 2461.12 2492.08 2461.43 2491.3 2461.43Z" fill="#FF9A35"/>
<path d="M2491.3 2537.39C2490.52 2537.39 2489.78 2537.08 2489.23 2536.54C2488.68 2535.99 2488.38 2535.24 2488.38 2534.47V2506.77C2488.39 2506 2488.7 2505.27 2489.25 2504.74C2489.8 2504.2 2490.53 2503.9 2491.3 2503.9C2492.07 2503.9 2492.8 2504.2 2493.35 2504.74C2493.89 2505.27 2494.21 2506 2494.22 2506.77V2534.47C2494.22 2535.24 2493.92 2535.99 2493.37 2536.54C2492.82 2537.08 2492.08 2537.39 2491.3 2537.39Z" fill="#FF9A35"/>
<path d="M2543.13 2485.56H2515.43C2514.66 2485.56 2513.91 2485.26 2513.36 2484.71C2512.82 2484.16 2512.51 2483.42 2512.51 2482.64C2512.51 2481.87 2512.82 2481.12 2513.36 2480.57C2513.91 2480.02 2514.66 2479.72 2515.43 2479.72H2543.13C2543.91 2479.72 2544.65 2480.02 2545.2 2480.57C2545.75 2481.12 2546.06 2481.87 2546.06 2482.64C2546.06 2483.42 2545.75 2484.16 2545.2 2484.71C2544.65 2485.26 2543.91 2485.56 2543.13 2485.56Z" fill="#FF9A35"/>
<path d="M2467.17 2485.56H2439.47C2438.7 2485.56 2437.96 2485.26 2437.41 2484.71C2436.86 2484.16 2436.55 2483.42 2436.55 2482.64C2436.55 2481.87 2436.86 2481.12 2437.41 2480.57C2437.96 2480.02 2438.7 2479.72 2439.47 2479.72H2467.17C2467.94 2479.72 2468.69 2480.02 2469.24 2480.57C2469.78 2481.12 2470.09 2481.87 2470.09 2482.64C2470.09 2483.42 2469.78 2484.16 2469.24 2484.71C2468.69 2485.26 2467.94 2485.56 2467.17 2485.56Z" fill="#FF9A35"/>
</svg>
